<svg width="229" height="165" viewBox="0 0 229 165" fill="none" xmlns="http://www.w3.org/2000/svg">
<circle cx="117" cy="80" r="80" fill="#B0CDFF"/>
<circle cx="33" cy="20" r="8" fill="#E6EFFF"/>
<circle cx="205" cy="126" r="6" fill="#E6EFFF"/>
<circle cx="32" cy="138" r="10" fill="#E6EFFF"/>
<circle cx="217" cy="38" r="10" fill="#E6EFFF"/>
<circle cx="198" cy="11" r="7" fill="#E6EFFF"/>
<g filter="url(#filter0_dd_3046_137729)">
<path d="M63.0783 124.215L115.53 99.7561C118.163 98.5281 119.302 95.3978 118.074 92.7643L87.0988 26.337L66.1234 18.7026L23.2087 38.714C20.5753 39.942 19.4359 43.0723 20.6639 45.7058L56.0865 121.67C57.3145 124.303 60.4448 125.443 63.0783 124.215Z" fill="url(#paint0_linear_3046_137729)"/>
<path d="M66.123 18.7031L87.0984 26.3375L72.7935 33.008L66.123 18.7031Z" fill="#79ABFF"/>
</g>
<g filter="url(#filter1_dd_3046_137729)">
<path d="M88.1519 106.339H146.025C148.931 106.339 151.287 103.984 151.287 101.078V27.7837L135.503 12H88.1519C85.2462 12 82.8906 14.3555 82.8906 17.2612V101.078C82.8906 103.984 85.2462 106.339 88.1519 106.339Z" fill="url(#paint1_linear_3046_137729)"/>
<path d="M135.503 12L151.287 27.7837H135.503V12Z" fill="#79ABFF"/>
</g>
<g filter="url(#filter2_dd_3046_137729)">
<path d="M117.91 99.724L170.362 124.182C172.995 125.41 176.126 124.271 177.354 121.638L208.329 55.2103L200.695 34.2349L157.78 14.2235C155.147 12.9955 152.016 14.1348 150.788 16.7683L115.366 92.7322C114.138 95.3657 115.277 98.496 117.91 99.724Z" fill="url(#paint2_linear_3046_137729)"/>
<path d="M200.694 34.2344L208.329 55.2098L194.024 48.5393L200.694 34.2344Z" fill="#79ABFF"/>
</g>
<g filter="url(#filter3_b_3046_137729)">
<rect x="89" y="88" width="56" height="56" rx="28" fill="#004CCC" fill-opacity="0.4"/>
<path d="M112.333 120.667L117 116M117 116L121.666 120.667M117 116V126.5M126.333 121.533C127.758 120.356 128.666 118.576 128.666 116.583C128.666 113.04 125.793 110.167 122.25 110.167C121.995 110.167 121.756 110.034 121.627 109.814C120.105 107.232 117.297 105.5 114.083 105.5C109.251 105.5 105.333 109.418 105.333 114.25C105.333 116.66 106.308 118.843 107.884 120.426" stroke="white" stroke-width="2" stroke-linecap="round" stroke-linejoin="round"/>
</g>
<defs>
<filter id="filter0_dd_3046_137729" x="-1.55957" y="12.0312" width="141.857" height="154.406" filterUnits="userSpaceOnUse" color-interpolation-filters="sRGB">
<feFlood flood-opacity="0" result="BackgroundImageFix"/>
<feColorMatrix in="SourceAlpha" type="matrix" values="0 0 0 0 0 0 0 0 0 0 0 0 0 0 0 0 0 0 127 0" result="hardAlpha"/>
<feMorphology radius="4" operator="erode" in="SourceAlpha" result="effect1_dropShadow_3046_137729"/>
<feOffset dy="8"/>
<feGaussianBlur stdDeviation="4"/>
<feColorMatrix type="matrix" values="0 0 0 0 0.0627451 0 0 0 0 0.0941176 0 0 0 0 0.156863 0 0 0 0.03 0"/>
<feBlend mode="normal" in2="BackgroundImageFix" result="effect1_dropShadow_3046_137729"/>
<feColorMatrix in="SourceAlpha" type="matrix" values="0 0 0 0 0 0 0 0 0 0 0 0 0 0 0 0 0 0 127 0" result="hardAlpha"/>
<feMorphology radius="4" operator="erode" in="SourceAlpha" result="effect2_dropShadow_3046_137729"/>
<feOffset dy="20"/>
<feGaussianBlur stdDeviation="12"/>
<feColorMatrix type="matrix" values="0 0 0 0 0.0627451 0 0 0 0 0.0941176 0 0 0 0 0.156863 0 0 0 0.08 0"/>
<feBlend mode="normal" in2="effect1_dropShadow_3046_137729" result="effect2_dropShadow_3046_137729"/>
<feBlend mode="normal" in="SourceGraphic" in2="effect2_dropShadow_3046_137729" result="shape"/>
</filter>
<filter id="filter1_dd_3046_137729" x="62.8906" y="12" width="108.396" height="134.34" filterUnits="userSpaceOnUse" color-interpolation-filters="sRGB">
<feFlood flood-opacity="0" result="BackgroundImageFix"/>
<feColorMatrix in="SourceAlpha" type="matrix" values="0 0 0 0 0 0 0 0 0 0 0 0 0 0 0 0 0 0 127 0" result="hardAlpha"/>
<feMorphology radius="4" operator="erode" in="SourceAlpha" result="effect1_dropShadow_3046_137729"/>
<feOffset dy="8"/>
<feGaussianBlur stdDeviation="4"/>
<feColorMatrix type="matrix" values="0 0 0 0 0.0627451 0 0 0 0 0.0941176 0 0 0 0 0.156863 0 0 0 0.03 0"/>
<feBlend mode="normal" in2="BackgroundImageFix" result="effect1_dropShadow_3046_137729"/>
<feColorMatrix in="SourceAlpha" type="matrix" values="0 0 0 0 0 0 0 0 0 0 0 0 0 0 0 0 0 0 127 0" result="hardAlpha"/>
<feMorphology radius="4" operator="erode" in="SourceAlpha" result="effect2_dropShadow_3046_137729"/>
<feOffset dy="20"/>
<feGaussianBlur stdDeviation="12"/>
<feColorMatrix type="matrix" values="0 0 0 0 0.0627451 0 0 0 0 0.0941176 0 0 0 0 0.156863 0 0 0 0.08 0"/>
<feBlend mode="normal" in2="effect1_dropShadow_3046_137729" result="effect2_dropShadow_3046_137729"/>
<feBlend mode="normal" in="SourceGraphic" in2="effect2_dropShadow_3046_137729" result="shape"/>
</filter>
<filter id="filter2_dd_3046_137729" x="93.1426" y="12" width="141.857" height="154.406" filterUnits="userSpaceOnUse" color-interpolation-filters="sRGB">
<feFlood flood-opacity="0" result="BackgroundImageFix"/>
<feColorMatrix in="SourceAlpha" type="matrix" values="0 0 0 0 0 0 0 0 0 0 0 0 0 0 0 0 0 0 127 0" result="hardAlpha"/>
<feMorphology radius="4" operator="erode" in="SourceAlpha" result="effect1_dropShadow_3046_137729"/>
<feOffset dy="8"/>
<feGaussianBlur stdDeviation="4"/>
<feColorMatrix type="matrix" values="0 0 0 0 0.0627451 0 0 0 0 0.0941176 0 0 0 0 0.156863 0 0 0 0.03 0"/>
<feBlend mode="normal" in2="BackgroundImageFix" result="effect1_dropShadow_3046_137729"/>
<feColorMatrix in="SourceAlpha" type="matrix" values="0 0 0 0 0 0 0 0 0 0 0 0 0 0 0 0 0 0 127 0" result="hardAlpha"/>
<feMorphology radius="4" operator="erode" in="SourceAlpha" result="effect2_dropShadow_3046_137729"/>
<feOffset dy="20"/>
<feGaussianBlur stdDeviation="12"/>
<feColorMatrix type="matrix" values="0 0 0 0 0.0627451 0 0 0 0 0.0941176 0 0 0 0 0.156863 0 0 0 0.08 0"/>
<feBlend mode="normal" in2="effect1_dropShadow_3046_137729" result="effect2_dropShadow_3046_137729"/>
<feBlend mode="normal" in="SourceGraphic" in2="effect2_dropShadow_3046_137729" result="shape"/>
</filter>
<filter id="filter3_b_3046_137729" x="81" y="80" width="72" height="72" filterUnits="userSpaceOnUse" color-interpolation-filters="sRGB">
<feFlood flood-opacity="0" result="BackgroundImageFix"/>
<feGaussianBlur in="BackgroundImageFix" stdDeviation="4"/>
<feComposite in2="SourceAlpha" operator="in" result="effect1_backgroundBlur_3046_137729"/>
<feBlend mode="normal" in="SourceGraphic" in2="effect1_backgroundBlur_3046_137729" result="shape"/>
</filter>
<linearGradient id="paint0_linear_3046_137729" x1="59.9968" y1="124.419" x2="18.1972" y2="49.0097" gradientUnits="userSpaceOnUse">
<stop stop-color="#B0CDFF"/>
<stop offset="1" stop-color="#E6EFFF"/>
</linearGradient>
<linearGradient id="paint1_linear_3046_137729" x1="85.2725" y1="105.223" x2="79.2587" y2="19.2131" gradientUnits="userSpaceOnUse">
<stop stop-color="#B0CDFF"/>
<stop offset="1" stop-color="#E6EFFF"/>
</linearGradient>
<linearGradient id="paint2_linear_3046_137729" x1="115.773" y1="97.4951" x2="146.672" y2="17.0024" gradientUnits="userSpaceOnUse">
<stop stop-color="#B0CDFF"/>
<stop offset="1" stop-color="#E6EFFF"/>
</linearGradient>
</defs>
</svg>
